<svg xmlns="http://www.w3.org/2000/svg" width="1920" height="920" style="cursor: move;"><g><path class="link" marker-end="" d="M800,290, 980,290" style="stroke-width: 0.5; stroke-opacity: 1; stroke: rgb(255, 187, 187);"></path><path class="link" marker-end="" d="M800,290, 980,330" style="stroke-width: 0.5; stroke-opacity: 1; stroke: rgb(255, 56, 56);"></path><path class="link" marker-end="" d="M800,290, 980,370" style="stroke-width: 0.5; stroke-opacity: 1; stroke: rgb(255, 249, 249);"></path><path class="link" marker-end="" d="M800,290, 980,410" style="stroke-width: 0.5; stroke-opacity: 1; stroke: rgb(36, 36, 255);"></path><path class="link" marker-end="" d="M800,290, 980,450" style="stroke-width: 0.5; stroke-opacity: 1; stroke: rgb(255, 43, 43);"></path><path class="link" marker-end="" d="M800,290, 980,490" style="stroke-width: 0.5; stroke-opacity: 1; stroke: rgb(192, 192, 255);"></path><path class="link" marker-end="" d="M800,290, 980,530" style="stroke-width: 0.5; stroke-opacity: 1; stroke: rgb(75, 75, 255);"></path><path class="link" marker-end="" d="M800,290, 980,570" style="stroke-width: 0.5; stroke-opacity: 1; stroke: rgb(255, 171, 171);"></path><path class="link" marker-end="" d="M800,290, 980,610" style="stroke-width: 0.5; stroke-opacity: 1; stroke: rgb(43, 43, 255);"></path><path class="link" marker-end="" d="M800,330, 980,290" style="stroke-width: 0.5; stroke-opacity: 1; stroke: rgb(255, 158, 158);"></path><path class="link" marker-end="" d="M800,330, 980,330" style="stroke-width: 0.5; stroke-opacity: 1; stroke: rgb(19, 19, 255);"></path><path class="link" marker-end="" d="M800,330, 980,370" style="stroke-width: 0.5; stroke-opacity: 1; stroke: rgb(255, 125, 125);"></path><path class="link" marker-end="" d="M800,330, 980,410" style="stroke-width: 0.5; stroke-opacity: 1; stroke: rgb(255, 209, 209);"></path><path class="link" marker-end="" d="M800,330, 980,450" style="stroke-width: 0.5; stroke-opacity: 1; stroke: rgb(255, 169, 169);"></path><path class="link" marker-end="" d="M800,330, 980,490" style="stroke-width: 0.5; stroke-opacity: 1; stroke: rgb(213, 213, 255);"></path><path class="link" marker-end="" d="M800,330, 980,530" style="stroke-width: 0.5; stroke-opacity: 1; stroke: rgb(29, 29, 255);"></path><path class="link" marker-end="" d="M800,330, 980,570" style="stroke-width: 0.5; stroke-opacity: 1; stroke: rgb(255, 129, 129);"></path><path class="link" marker-end="" d="M800,330, 980,610" style="stroke-width: 0.5; stroke-opacity: 1; stroke: rgb(255, 206, 206);"></path><path class="link" marker-end="" d="M800,370, 980,290" style="stroke-width: 0.5; stroke-opacity: 1; stroke: rgb(214, 214, 255);"></path><path class="link" marker-end="" d="M800,370, 980,330" style="stroke-width: 0.5; stroke-opacity: 1; stroke: rgb(255, 75, 75);"></path><path class="link" marker-end="" d="M800,370, 980,370" style="stroke-width: 0.5; stroke-opacity: 1; stroke: rgb(255, 253, 253);"></path><path class="link" marker-end="" d="M800,370, 980,410" style="stroke-width: 0.5; stroke-opacity: 1; stroke: rgb(255, 79, 79);"></path><path class="link" marker-end="" d="M800,370, 980,450" style="stroke-width: 0.5; stroke-opacity: 1; stroke: rgb(255, 29, 29);"></path><path class="link" marker-end="" d="M800,370, 980,490" style="stroke-width: 0.5; stroke-opacity: 1; stroke: rgb(245, 245, 255);"></path><path class="link" marker-end="" d="M800,370, 980,530" style="stroke-width: 0.5; stroke-opacity: 1; stroke: rgb(255, 31, 31);"></path><path class="link" marker-end="" d="M800,370, 980,570" style="stroke-width: 0.5; stroke-opacity: 1; stroke: rgb(255, 214, 214);"></path><path class="link" marker-end="" d="M800,370, 980,610" style="stroke-width: 0.5; stroke-opacity: 1; stroke: rgb(108, 108, 255);"></path><path class="link" marker-end="" d="M800,410, 980,290" style="stroke-width: 0.5; stroke-opacity: 1; stroke: rgb(255, 116, 116);"></path><path class="link" marker-end="" d="M800,410, 980,330" style="stroke-width: 0.5; stroke-opacity: 1; stroke: rgb(255, 4, 4);"></path><path class="link" marker-end="" d="M800,410, 980,370" style="stroke-width: 0.5; stroke-opacity: 1; stroke: rgb(29, 29, 255);"></path><path class="link" marker-end="" d="M800,410, 980,410" style="stroke-width: 0.5; stroke-opacity: 1; stroke: rgb(255, 40, 40);"></path><path class="link" marker-end="" d="M800,410, 980,450" style="stroke-width: 0.5; stroke-opacity: 1; stroke: rgb(164, 164, 255);"></path><path class="link" marker-end="" d="M800,410, 980,490" style="stroke-width: 0.5; stroke-opacity: 1; stroke: rgb(220, 220, 255);"></path><path class="link" marker-end="" d="M800,410, 980,530" style="stroke-width: 0.5; stroke-opacity: 1; stroke: rgb(255, 60, 60);"></path><path class="link" marker-end="" d="M800,410, 980,570" style="stroke-width: 0.5; stroke-opacity: 1; stroke: rgb(255, 204, 204);"></path><path class="link" marker-end="" d="M800,410, 980,610" style="stroke-width: 0.5; stroke-opacity: 1; stroke: rgb(244, 244, 255);"></path><path class="link" marker-end="" d="M800,450, 980,290" style="stroke-width: 0.5; stroke-opacity: 1; stroke: rgb(66, 66, 255);"></path><path class="link" marker-end="" d="M800,450, 980,330" style="stroke-width: 0.5; stroke-opacity: 1; stroke: rgb(142, 142, 255);"></path><path class="link" marker-end="" d="M800,450, 980,370" style="stroke-width: 0.5; stroke-opacity: 1; stroke: rgb(117, 117, 255);"></path><path class="link" marker-end="" d="M800,450, 980,410" style="stroke-width: 0.5; stroke-opacity: 1; stroke: rgb(255, 19, 19);"></path><path class="link" marker-end="" d="M800,450, 980,450" style="stroke-width: 0.5; stroke-opacity: 1; stroke: rgb(255, 52, 52);"></path><path class="link" marker-end="" d="M800,450, 980,490" style="stroke-width: 0.5; stroke-opacity: 1; stroke: rgb(79, 79, 255);"></path><path class="link" marker-end="" d="M800,450, 980,530" style="stroke-width: 0.5; stroke-opacity: 1; stroke: rgb(255, 12, 12);"></path><path class="link" marker-end="" d="M800,450, 980,570" style="stroke-width: 0.5; stroke-opacity: 1; stroke: rgb(255, 26, 26);"></path><path class="link" marker-end="" d="M800,450, 980,610" style="stroke-width: 0.5; stroke-opacity: 1; stroke: rgb(255, 66, 66);"></path><path class="link" marker-end="" d="M800,490, 980,290" style="stroke-width: 0.5; stroke-opacity: 1; stroke: rgb(212, 212, 255);"></path><path class="link" marker-end="" d="M800,490, 980,330" style="stroke-width: 0.5; stroke-opacity: 1; stroke: rgb(255, 41, 41);"></path><path class="link" marker-end="" d="M800,490, 980,370" style="stroke-width: 0.5; stroke-opacity: 1; stroke: rgb(38, 38, 255);"></path><path class="link" marker-end="" d="M800,490, 980,410" style="stroke-width: 0.5; stroke-opacity: 1; stroke: rgb(3, 3, 255);"></path><path class="link" marker-end="" d="M800,490, 980,450" style="stroke-width: 0.5; stroke-opacity: 1; stroke: rgb(255, 160, 160);"></path><path class="link" marker-end="" d="M800,490, 980,490" style="stroke-width: 0.5; stroke-opacity: 1; stroke: rgb(255, 42, 42);"></path><path class="link" marker-end="" d="M800,490, 980,530" style="stroke-width: 0.5; stroke-opacity: 1; stroke: rgb(193, 193, 255);"></path><path class="link" marker-end="" d="M800,490, 980,570" style="stroke-width: 0.5; stroke-opacity: 1; stroke: rgb(218, 218, 255);"></path><path class="link" marker-end="" d="M800,490, 980,610" style="stroke-width: 0.5; stroke-opacity: 1; stroke: rgb(202, 202, 255);"></path><path class="link" marker-end="" d="M800,530, 980,290" style="stroke-width: 0.5; stroke-opacity: 1; stroke: rgb(97, 97, 255);"></path><path class="link" marker-end="" d="M800,530, 980,330" style="stroke-width: 0.5; stroke-opacity: 1; stroke: rgb(223, 223, 255);"></path><path class="link" marker-end="" d="M800,530, 980,370" style="stroke-width: 0.5; stroke-opacity: 1; stroke: rgb(255, 15, 15);"></path><path class="link" marker-end="" d="M800,530, 980,410" style="stroke-width: 0.5; stroke-opacity: 1; stroke: rgb(182, 182, 255);"></path><path class="link" marker-end="" d="M800,530, 980,450" style="stroke-width: 0.5; stroke-opacity: 1; stroke: rgb(115, 115, 255);"></path><path class="link" marker-end="" d="M800,530, 980,490" style="stroke-width: 0.5; stroke-opacity: 1; stroke: rgb(255, 136, 136);"></path><path class="link" marker-end="" d="M800,530, 980,530" style="stroke-width: 0.5; stroke-opacity: 1; stroke: rgb(178, 178, 255);"></path><path class="link" marker-end="" d="M800,530, 980,570" style="stroke-width: 0.5; stroke-opacity: 1; stroke: rgb(154, 154, 255);"></path><path class="link" marker-end="" d="M800,530, 980,610" style="stroke-width: 0.5; stroke-opacity: 1; stroke: rgb(255, 226, 226);"></path><path class="link" marker-end="" d="M800,570, 980,290" style="stroke-width: 0.5; stroke-opacity: 1; stroke: rgb(225, 225, 255);"></path><path class="link" marker-end="" d="M800,570, 980,330" style="stroke-width: 0.5; stroke-opacity: 1; stroke: rgb(127, 127, 255);"></path><path class="link" marker-end="" d="M800,570, 980,370" style="stroke-width: 0.5; stroke-opacity: 1; stroke: rgb(255, 49, 49);"></path><path class="link" marker-end="" d="M800,570, 980,410" style="stroke-width: 0.5; stroke-opacity: 1; stroke: rgb(255, 246, 246);"></path><path class="link" marker-end="" d="M800,570, 980,450" style="stroke-width: 0.5; stroke-opacity: 1; stroke: rgb(229, 229, 255);"></path><path class="link" marker-end="" d="M800,570, 980,490" style="stroke-width: 0.5; stroke-opacity: 1; stroke: rgb(225, 225, 255);"></path><path class="link" marker-end="" d="M800,570, 980,530" style="stroke-width: 0.5; stroke-opacity: 1; stroke: rgb(255, 39, 39);"></path><path class="link" marker-end="" d="M800,570, 980,570" style="stroke-width: 0.5; stroke-opacity: 1; stroke: rgb(41, 41, 255);"></path><path class="link" marker-end="" d="M800,570, 980,610" style="stroke-width: 0.5; stroke-opacity: 1; stroke: rgb(184, 184, 255);"></path><path class="link" marker-end="" d="M800,610, 980,290" style="stroke-width: 0.5; stroke-opacity: 1; stroke: rgb(223, 223, 255);"></path><path class="link" marker-end="" d="M800,610, 980,330" style="stroke-width: 0.5; stroke-opacity: 1; stroke: rgb(255, 93, 93);"></path><path class="link" marker-end="" d="M800,610, 980,370" style="stroke-width: 0.5; stroke-opacity: 1; stroke: rgb(255, 248, 248);"></path><path class="link" marker-end="" d="M800,610, 980,410" style="stroke-width: 0.5; stroke-opacity: 1; stroke: rgb(255, 36, 36);"></path><path class="link" marker-end="" d="M800,610, 980,450" style="stroke-width: 0.5; stroke-opacity: 1; stroke: rgb(135, 135, 255);"></path><path class="link" marker-end="" d="M800,610, 980,490" style="stroke-width: 0.5; stroke-opacity: 1; stroke: rgb(188, 188, 255);"></path><path class="link" marker-end="" d="M800,610, 980,530" style="stroke-width: 0.5; stroke-opacity: 1; stroke: rgb(255, 102, 102);"></path><path class="link" marker-end="" d="M800,610, 980,570" style="stroke-width: 0.5; stroke-opacity: 1; stroke: rgb(206, 206, 255);"></path><path class="link" marker-end="" d="M800,610, 980,610" style="stroke-width: 0.5; stroke-opacity: 1; stroke: rgb(255, 8, 8);"></path><path class="link" marker-end="" d="M980,290, 1160,450" style="stroke-width: 0.5; stroke-opacity: 1; stroke: rgb(97, 97, 255);"></path><path class="link" marker-end="" d="M980,330, 1160,450" style="stroke-width: 0.5; stroke-opacity: 1; stroke: rgb(178, 178, 255);"></path><path class="link" marker-end="" d="M980,370, 1160,450" style="stroke-width: 0.5; stroke-opacity: 1; stroke: rgb(255, 25, 25);"></path><path class="link" marker-end="" d="M980,410, 1160,450" style="stroke-width: 0.5; stroke-opacity: 1; stroke: rgb(255, 205, 205);"></path><path class="link" marker-end="" d="M980,450, 1160,450" style="stroke-width: 0.5; stroke-opacity: 1; stroke: rgb(5, 5, 255);"></path><path class="link" marker-end="" d="M980,490, 1160,450" style="stroke-width: 0.5; stroke-opacity: 1; stroke: rgb(255, 70, 70);"></path><path class="link" marker-end="" d="M980,530, 1160,450" style="stroke-width: 0.5; stroke-opacity: 1; stroke: rgb(255, 91, 91);"></path><path class="link" marker-end="" d="M980,570, 1160,450" style="stroke-width: 0.5; stroke-opacity: 1; stroke: rgb(255, 174, 174);"></path><path class="link" marker-end="" d="M980,610, 1160,450" style="stroke-width: 0.5; stroke-opacity: 1; stroke: rgb(255, 79, 79);"></path><circle r="10" class="node" id="0_0" cx="800" cy="290" style="fill: rgb(255, 255, 255); stroke: rgb(51, 51, 51);"></circle><circle r="10" class="node" id="0_1" cx="800" cy="330" style="fill: rgb(255, 255, 255); stroke: rgb(51, 51, 51);"></circle><circle r="10" class="node" id="0_2" cx="800" cy="370" style="fill: rgb(255, 255, 255); stroke: rgb(51, 51, 51);"></circle><circle r="10" class="node" id="0_3" cx="800" cy="410" style="fill: rgb(255, 255, 255); stroke: rgb(51, 51, 51);"></circle><circle r="10" class="node" id="0_4" cx="800" cy="450" style="fill: rgb(255, 255, 255); stroke: rgb(51, 51, 51);"></circle><circle r="10" class="node" id="0_5" cx="800" cy="490" style="fill: rgb(255, 255, 255); stroke: rgb(51, 51, 51);"></circle><circle r="10" class="node" id="0_6" cx="800" cy="530" style="fill: rgb(255, 255, 255); stroke: rgb(51, 51, 51);"></circle><circle r="10" class="node" id="0_7" cx="800" cy="570" style="fill: rgb(255, 255, 255); stroke: rgb(51, 51, 51);"></circle><circle r="10" class="node" id="0_8" cx="800" cy="610" style="fill: rgb(255, 255, 255); stroke: rgb(51, 51, 51);"></circle><circle r="10" class="node" id="1_0" cx="980" cy="290" style="fill: rgb(255, 255, 255); stroke: rgb(51, 51, 51);"></circle><circle r="10" class="node" id="1_1" cx="980" cy="330" style="fill: rgb(255, 255, 255); stroke: rgb(51, 51, 51);"></circle><circle r="10" class="node" id="1_2" cx="980" cy="370" style="fill: rgb(255, 255, 255); stroke: rgb(51, 51, 51);"></circle><circle r="10" class="node" id="1_3" cx="980" cy="410" style="fill: rgb(255, 255, 255); stroke: rgb(51, 51, 51);"></circle><circle r="10" class="node" id="1_4" cx="980" cy="450" style="fill: rgb(255, 255, 255); stroke: rgb(51, 51, 51);"></circle><circle r="10" class="node" id="1_5" cx="980" cy="490" style="fill: rgb(255, 255, 255); stroke: rgb(51, 51, 51);"></circle><circle r="10" class="node" id="1_6" cx="980" cy="530" style="fill: rgb(255, 255, 255); stroke: rgb(51, 51, 51);"></circle><circle r="10" class="node" id="1_7" cx="980" cy="570" style="fill: rgb(255, 255, 255); stroke: rgb(51, 51, 51);"></circle><circle r="10" class="node" id="1_8" cx="980" cy="610" style="fill: rgb(255, 255, 255); stroke: rgb(51, 51, 51);"></circle><circle r="10" class="node" id="2_0" cx="1160" cy="450" style="fill: rgb(255, 255, 255); stroke: rgb(51, 51, 51);"></circle><text class="text" dy=".35em" x="765" y="650" style="font-size: 12px;">Input Layer ∈ ℝ⁹</text><text class="text" dy=".35em" x="945" y="650" style="font-size: 12px;">Hidden Layer ∈ ℝ⁹</text><text class="text" dy=".35em" x="1125" y="650" style="font-size: 12px;">Output Layer ∈ ℝ¹</text></g><defs><marker id="arrow" viewBox="0 -5 10 10" markerWidth="7" markerHeight="7" orient="auto" refX="40"><path d="M0,-5L10,0L0,5" style="stroke: rgb(80, 80, 80); fill: none;"></path></marker></defs></svg>